<mxfile host="app.diagrams.net" agent="Mozilla/5.0 (Windows NT 10.0; Win64; x64) AppleWebKit/537.36 (KHTML, like Gecko) Chrome/128.0.0.0 Safari/537.36" version="24.7.10">
  <diagram name="第 1 页" id="yvzBEfW1qtXGwXf7Tzsi">
    <mxGraphModel dx="1834" dy="738" grid="0" gridSize="10" guides="1" tooltips="1" connect="1" arrows="1" fold="1" page="0" pageScale="1" pageWidth="827" pageHeight="1169" math="0" shadow="0">
      <root>
        <mxCell id="0" />
        <mxCell id="1" parent="0" />
        <mxCell id="kn0mLIC4E7_oIcP1fwdP-3" value="" style="edgeStyle=orthogonalEdgeStyle;rounded=0;orthogonalLoop=1;jettySize=auto;html=1;strokeColor=#E07A5F;fontColor=#393C56;fillColor=#F2CC8F;" edge="1" parent="1" source="kn0mLIC4E7_oIcP1fwdP-1" target="kn0mLIC4E7_oIcP1fwdP-2">
          <mxGeometry relative="1" as="geometry" />
        </mxCell>
        <mxCell id="kn0mLIC4E7_oIcP1fwdP-1" value="限额列表查询" style="strokeWidth=2;html=1;shape=mxgraph.flowchart.start_2;whiteSpace=wrap;strokeColor=#E07A5F;fontColor=#393C56;fillColor=#F2CC8F;" vertex="1" parent="1">
          <mxGeometry x="140" y="179" width="100" height="100" as="geometry" />
        </mxCell>
        <mxCell id="kn0mLIC4E7_oIcP1fwdP-5" value="" style="edgeStyle=orthogonalEdgeStyle;rounded=0;orthogonalLoop=1;jettySize=auto;html=1;strokeColor=#E07A5F;fontColor=#393C56;fillColor=#F2CC8F;" edge="1" parent="1" source="kn0mLIC4E7_oIcP1fwdP-2" target="kn0mLIC4E7_oIcP1fwdP-4">
          <mxGeometry relative="1" as="geometry" />
        </mxCell>
        <mxCell id="kn0mLIC4E7_oIcP1fwdP-2" value="查询公司信息" style="whiteSpace=wrap;html=1;fillColor=#F2CC8F;strokeColor=#E07A5F;fontColor=#393C56;strokeWidth=2;" vertex="1" parent="1">
          <mxGeometry x="130" y="379" width="120" height="60" as="geometry" />
        </mxCell>
        <mxCell id="kn0mLIC4E7_oIcP1fwdP-7" value="" style="edgeStyle=orthogonalEdgeStyle;rounded=0;orthogonalLoop=1;jettySize=auto;html=1;strokeColor=#E07A5F;fontColor=#393C56;fillColor=#F2CC8F;" edge="1" parent="1" source="kn0mLIC4E7_oIcP1fwdP-4" target="kn0mLIC4E7_oIcP1fwdP-6">
          <mxGeometry relative="1" as="geometry" />
        </mxCell>
        <mxCell id="kn0mLIC4E7_oIcP1fwdP-4" value="查询账号列表" style="whiteSpace=wrap;html=1;fillColor=#F2CC8F;strokeColor=#E07A5F;fontColor=#393C56;strokeWidth=2;" vertex="1" parent="1">
          <mxGeometry x="130" y="519" width="120" height="60" as="geometry" />
        </mxCell>
        <mxCell id="kn0mLIC4E7_oIcP1fwdP-9" style="edgeStyle=orthogonalEdgeStyle;rounded=0;orthogonalLoop=1;jettySize=auto;html=1;exitX=0.5;exitY=1;exitDx=0;exitDy=0;strokeColor=#E07A5F;fontColor=#393C56;fillColor=#F2CC8F;" edge="1" parent="1" source="kn0mLIC4E7_oIcP1fwdP-6" target="kn0mLIC4E7_oIcP1fwdP-8">
          <mxGeometry relative="1" as="geometry" />
        </mxCell>
        <mxCell id="kn0mLIC4E7_oIcP1fwdP-6" value="查询限额表" style="whiteSpace=wrap;html=1;fillColor=#F2CC8F;strokeColor=#E07A5F;fontColor=#393C56;strokeWidth=2;" vertex="1" parent="1">
          <mxGeometry x="130" y="659" width="120" height="60" as="geometry" />
        </mxCell>
        <mxCell id="kn0mLIC4E7_oIcP1fwdP-8" value="组装数据，返回" style="strokeWidth=2;html=1;shape=mxgraph.flowchart.terminator;whiteSpace=wrap;strokeColor=#E07A5F;fontColor=#393C56;fillColor=#F2CC8F;" vertex="1" parent="1">
          <mxGeometry x="140" y="805" width="100" height="60" as="geometry" />
        </mxCell>
        <mxCell id="kn0mLIC4E7_oIcP1fwdP-10" value="&lt;code style=&quot;font-family: Consolas, &amp;quot;Bitstream Vera Sans Mono&amp;quot;, &amp;quot;Courier New&amp;quot;, Courier, monospace; border-radius: 0px; background-image: none; background-position: initial; background-size: initial; background-repeat: initial; background-attachment: initial; background-origin: initial; background-clip: initial; border: 0px; inset: auto; float: none; height: auto; line-height: 20px; margin: 0px; outline: 0px; overflow: visible; padding: 0px; position: static; text-align: left; vertical-align: baseline; width: auto; box-sizing: content-box; font-size: 14px; min-height: inherit; text-wrap: nowrap; color: black !important;&quot; class=&quot;java plain&quot;&gt;根据公司id查询公司名称，&lt;/code&gt;&lt;div&gt;&lt;code style=&quot;font-family: Consolas, &amp;quot;Bitstream Vera Sans Mono&amp;quot;, &amp;quot;Courier New&amp;quot;, Courier, monospace; border-radius: 0px; background-image: none; background-position: initial; background-size: initial; background-repeat: initial; background-attachment: initial; background-origin: initial; background-clip: initial; border: 0px; inset: auto; float: none; height: auto; line-height: 20px; margin: 0px; outline: 0px; overflow: visible; padding: 0px; position: static; text-align: left; vertical-align: baseline; width: auto; box-sizing: content-box; font-size: 14px; min-height: inherit; text-wrap: nowrap; color: black !important;&quot; class=&quot;java plain&quot;&gt;表Corporation，状态不为&lt;/code&gt;&lt;code style=&quot;font-family: Consolas, &amp;quot;Bitstream Vera Sans Mono&amp;quot;, &amp;quot;Courier New&amp;quot;, Courier, monospace; border-radius: 0px; background-image: none; background-position: initial; background-size: initial; background-repeat: initial; background-attachment: initial; background-origin: initial; background-clip: initial; border: 0px; inset: auto; float: none; height: auto; line-height: 20px; margin: 0px; outline: 0px; overflow: visible; padding: 0px; position: static; text-align: left; vertical-align: baseline; width: auto; box-sizing: content-box; font-size: 14px; min-height: inherit; text-wrap: nowrap; color: rgb(0, 153, 0) !important;&quot; class=&quot;java value&quot;&gt;9&lt;/code&gt;&lt;code style=&quot;font-family: Consolas, &amp;quot;Bitstream Vera Sans Mono&amp;quot;, &amp;quot;Courier New&amp;quot;, Courier, monospace; border-radius: 0px; background-image: none; background-position: initial; background-size: initial; background-repeat: initial; background-attachment: initial; background-origin: initial; background-clip: initial; border: 0px; inset: auto; float: none; height: auto; line-height: 20px; margin: 0px; outline: 0px; overflow: visible; padding: 0px; position: static; text-align: left; vertical-align: baseline; width: auto; box-sizing: content-box; font-size: 14px; min-height: inherit; text-wrap: nowrap; color: black !important;&quot; class=&quot;java plain&quot;&gt;（移除）&lt;/code&gt;&lt;/div&gt;" style="text;html=1;align=center;verticalAlign=middle;whiteSpace=wrap;rounded=0;fontColor=#393C56;" vertex="1" parent="1">
          <mxGeometry x="-162" y="360" width="258" height="88" as="geometry" />
        </mxCell>
        <mxCell id="kn0mLIC4E7_oIcP1fwdP-11" value="&lt;div style=&quot;margin: 0px; padding: 0px 1em 0px 0em; border-radius: 0px; background-image: none; background-position: initial; background-size: initial; background-repeat: initial; background-attachment: initial; background-origin: initial; background-clip: initial; border: 0px; inset: auto; float: none; height: auto; line-height: 20px; outline: 0px; overflow: visible; position: static; text-align: left; vertical-align: baseline; width: auto; box-sizing: content-box; font-family: Consolas, &amp;quot;Bitstream Vera Sans Mono&amp;quot;, &amp;quot;Courier New&amp;quot;, Courier, monospace; font-size: 14px; min-height: inherit; text-wrap: nowrap; color: rgb(51, 51, 51);&quot; data-bidi-marker=&quot;true&quot; class=&quot;line number4 index3 alt1&quot;&gt;&lt;code style=&quot;font-family: Consolas, &amp;quot;Bitstream Vera Sans Mono&amp;quot;, &amp;quot;Courier New&amp;quot;, Courier, monospace; border-radius: 0px; background: none; border: 0px; inset: auto; float: none; height: auto; line-height: 20px; margin: 0px; outline: 0px; overflow: visible; padding: 0px; position: static; vertical-align: baseline; width: auto; box-sizing: content-box; min-height: inherit; color: black !important;&quot; class=&quot;java plain&quot;&gt;根据公司id查询账户列表，corp_account&lt;/code&gt;&lt;/div&gt;&lt;div style=&quot;margin: 0px; padding: 0px 1em 0px 0em; border-radius: 0px; background-image: none; background-position: initial; background-size: initial; background-repeat: initial; background-attachment: initial; background-origin: initial; background-clip: initial; border: 0px; inset: auto; float: none; height: auto; line-height: 20px; outline: 0px; overflow: visible; position: static; text-align: left; vertical-align: baseline; width: auto; box-sizing: content-box; font-family: Consolas, &amp;quot;Bitstream Vera Sans Mono&amp;quot;, &amp;quot;Courier New&amp;quot;, Courier, monospace; font-size: 14px; min-height: inherit; text-wrap: nowrap; color: rgb(51, 51, 51);&quot; data-bidi-marker=&quot;true&quot; class=&quot;line number5 index4 alt2&quot;&gt;&lt;code style=&quot;font-family: Consolas, &amp;quot;Bitstream Vera Sans Mono&amp;quot;, &amp;quot;Courier New&amp;quot;, Courier, monospace; border-radius: 0px; background: none; border: 0px; inset: auto; float: none; height: auto; line-height: 20px; margin: 0px; outline: 0px; overflow: visible; padding: 0px; position: static; vertical-align: baseline; width: auto; box-sizing: content-box; min-height: inherit; color: black !important;&quot; class=&quot;java plain&quot;&gt;STATUS =&amp;nbsp;&lt;/code&gt;&lt;code style=&quot;font-family: Consolas, &amp;quot;Bitstream Vera Sans Mono&amp;quot;, &amp;quot;Courier New&amp;quot;, Courier, monospace; border-radius: 0px; background: none; border: 0px; inset: auto; float: none; height: auto; line-height: 20px; margin: 0px; outline: 0px; overflow: visible; padding: 0px; position: static; vertical-align: baseline; width: auto; box-sizing: content-box; min-height: inherit; color: rgb(0, 153, 0) !important;&quot; class=&quot;java value&quot;&gt;0&lt;/code&gt;&amp;nbsp;&lt;code style=&quot;font-family: Consolas, &amp;quot;Bitstream Vera Sans Mono&amp;quot;, &amp;quot;Courier New&amp;quot;, Courier, monospace; border-radius: 0px; background: none; border: 0px; inset: auto; float: none; height: auto; line-height: 20px; margin: 0px; outline: 0px; overflow: visible; padding: 0px; position: static; vertical-align: baseline; width: auto; box-sizing: content-box; min-height: inherit; color: black !important;&quot; class=&quot;java plain&quot;&gt;AND accountType in (&lt;/code&gt;&lt;code style=&quot;font-family: Consolas, &amp;quot;Bitstream Vera Sans Mono&amp;quot;, &amp;quot;Courier New&amp;quot;, Courier, monospace; border-radius: 0px; background: none; border: 0px; inset: auto; float: none; height: auto; line-height: 20px; margin: 0px; outline: 0px; overflow: visible; padding: 0px; position: static; vertical-align: baseline; width: auto; box-sizing: content-box; min-height: inherit; color: rgb(42, 0, 255) !important;&quot; class=&quot;java string&quot;&gt;&#39;SP&#39;&lt;/code&gt;&lt;code style=&quot;font-family: Consolas, &amp;quot;Bitstream Vera Sans Mono&amp;quot;, &amp;quot;Courier New&amp;quot;, Courier, monospace; border-radius: 0px; background: none; border: 0px; inset: auto; float: none; height: auto; line-height: 20px; margin: 0px; outline: 0px; overflow: visible; padding: 0px; position: static; vertical-align: baseline; width: auto; box-sizing: content-box; min-height: inherit; color: black !important;&quot; class=&quot;java plain&quot;&gt;,&lt;/code&gt;&lt;code style=&quot;font-family: Consolas, &amp;quot;Bitstream Vera Sans Mono&amp;quot;, &amp;quot;Courier New&amp;quot;, Courier, monospace; border-radius: 0px; background: none; border: 0px; inset: auto; float: none; height: auto; line-height: 20px; margin: 0px; outline: 0px; overflow: visible; padding: 0px; position: static; vertical-align: baseline; width: auto; box-sizing: content-box; min-height: inherit; color: rgb(42, 0, 255) !important;&quot; class=&quot;java string&quot;&gt;&#39;SA&#39;&lt;/code&gt;&lt;code style=&quot;font-family: Consolas, &amp;quot;Bitstream Vera Sans Mono&amp;quot;, &amp;quot;Courier New&amp;quot;, Courier, monospace; border-radius: 0px; background: none; border: 0px; inset: auto; float: none; height: auto; line-height: 20px; margin: 0px; outline: 0px; overflow: visible; padding: 0px; position: static; vertical-align: baseline; width: auto; box-sizing: content-box; min-height: inherit; color: black !important;&quot; class=&quot;java plain&quot;&gt;) AND accountType NOT IN(&lt;/code&gt;&lt;code style=&quot;font-family: Consolas, &amp;quot;Bitstream Vera Sans Mono&amp;quot;, &amp;quot;Courier New&amp;quot;, Courier, monospace; border-radius: 0px; background: none; border: 0px; inset: auto; float: none; height: auto; line-height: 20px; margin: 0px; outline: 0px; overflow: visible; padding: 0px; position: static; vertical-align: baseline; width: auto; box-sizing: content-box; min-height: inherit; color: rgb(42, 0, 255) !important;&quot; class=&quot;java string&quot;&gt;&#39;&#39;&lt;/code&gt;&lt;code style=&quot;font-family: Consolas, &amp;quot;Bitstream Vera Sans Mono&amp;quot;, &amp;quot;Courier New&amp;quot;, Courier, monospace; border-radius: 0px; background: none; border: 0px; inset: auto; float: none; height: auto; line-height: 20px; margin: 0px; outline: 0px; overflow: visible; padding: 0px; position: static; vertical-align: baseline; width: auto; box-sizing: content-box; min-height: inherit; color: black !important;&quot; class=&quot;java plain&quot;&gt;,&lt;/code&gt;&lt;code style=&quot;font-family: Consolas, &amp;quot;Bitstream Vera Sans Mono&amp;quot;, &amp;quot;Courier New&amp;quot;, Courier, monospace; border-radius: 0px; background: none; border: 0px; inset: auto; float: none; height: auto; line-height: 20px; margin: 0px; outline: 0px; overflow: visible; padding: 0px; position: static; vertical-align: baseline; width: auto; box-sizing: content-box; min-height: inherit; color: rgb(42, 0, 255) !important;&quot; class=&quot;java string&quot;&gt;&#39;CA&#39;&lt;/code&gt;&lt;code style=&quot;font-family: Consolas, &amp;quot;Bitstream Vera Sans Mono&amp;quot;, &amp;quot;Courier New&amp;quot;, Courier, monospace; border-radius: 0px; background: none; border: 0px; inset: auto; float: none; height: auto; line-height: 20px; margin: 0px; outline: 0px; overflow: visible; padding: 0px; position: static; vertical-align: baseline; width: auto; box-sizing: content-box; min-height: inherit; color: black !important;&quot; class=&quot;java plain&quot;&gt;)&lt;/code&gt;&lt;/div&gt;" style="text;html=1;align=center;verticalAlign=middle;whiteSpace=wrap;rounded=0;fontColor=#393C56;" vertex="1" parent="1">
          <mxGeometry x="305" y="488" width="630" height="113" as="geometry" />
        </mxCell>
        <mxCell id="kn0mLIC4E7_oIcP1fwdP-12" value="&lt;code style=&quot;font-family: Consolas, &amp;quot;Bitstream Vera Sans Mono&amp;quot;, &amp;quot;Courier New&amp;quot;, Courier, monospace; border-radius: 0px; background-image: none; background-position: initial; background-size: initial; background-repeat: initial; background-attachment: initial; background-origin: initial; background-clip: initial; border: 0px; inset: auto; float: none; height: auto; line-height: 20px; margin: 0px; outline: 0px; overflow: visible; padding: 0px; position: static; text-align: left; vertical-align: baseline; width: auto; box-sizing: content-box; font-size: 14px; min-height: inherit; text-wrap: nowrap; color: black !important;&quot; class=&quot;java plain&quot;&gt;根据公司id、账号、以及状态查询限额表txn_limit，&lt;/code&gt;&lt;div&gt;&lt;code style=&quot;font-family: Consolas, &amp;quot;Bitstream Vera Sans Mono&amp;quot;, &amp;quot;Courier New&amp;quot;, Courier, monospace; border-radius: 0px; background-image: none; background-position: initial; background-size: initial; background-repeat: initial; background-attachment: initial; background-origin: initial; background-clip: initial; border: 0px; inset: auto; float: none; height: auto; line-height: 20px; margin: 0px; outline: 0px; overflow: visible; padding: 0px; position: static; text-align: left; vertical-align: baseline; width: auto; box-sizing: content-box; font-size: 14px; min-height: inherit; text-wrap: nowrap; color: black !important;&quot; class=&quot;java plain&quot;&gt;状态pending跟normal的&lt;/code&gt;&lt;code style=&quot;font-family: Consolas, &amp;quot;Bitstream Vera Sans Mono&amp;quot;, &amp;quot;Courier New&amp;quot;, Courier, monospace; border-radius: 0px; background-image: none; background-position: initial; background-size: initial; background-repeat: initial; background-attachment: initial; background-origin: initial; background-clip: initial; border: 0px; inset: auto; float: none; height: auto; line-height: 20px; margin: 0px; outline: 0px; overflow: visible; padding: 0px; position: static; text-align: left; vertical-align: baseline; width: auto; box-sizing: content-box; font-size: 14px; min-height: inherit; text-wrap: nowrap; color: rgb(0, 153, 0) !important;&quot; class=&quot;java value&quot;&gt;1&lt;/code&gt;&lt;code style=&quot;font-family: Consolas, &amp;quot;Bitstream Vera Sans Mono&amp;quot;, &amp;quot;Courier New&amp;quot;, Courier, monospace; border-radius: 0px; background-image: none; background-position: initial; background-size: initial; background-repeat: initial; background-attachment: initial; background-origin: initial; background-clip: initial; border: 0px; inset: auto; float: none; height: auto; line-height: 20px; margin: 0px; outline: 0px; overflow: visible; padding: 0px; position: static; text-align: left; vertical-align: baseline; width: auto; box-sizing: content-box; font-size: 14px; min-height: inherit; text-wrap: nowrap; color: black !important;&quot; class=&quot;java plain&quot;&gt;跟&lt;/code&gt;&lt;code style=&quot;font-family: Consolas, &amp;quot;Bitstream Vera Sans Mono&amp;quot;, &amp;quot;Courier New&amp;quot;, Courier, monospace; border-radius: 0px; background-image: none; background-position: initial; background-size: initial; background-repeat: initial; background-attachment: initial; background-origin: initial; background-clip: initial; border: 0px; inset: auto; float: none; height: auto; line-height: 20px; margin: 0px; outline: 0px; overflow: visible; padding: 0px; position: static; text-align: left; vertical-align: baseline; width: auto; box-sizing: content-box; font-size: 14px; min-height: inherit; text-wrap: nowrap; color: rgb(0, 153, 0) !important;&quot; class=&quot;java value&quot;&gt;0&lt;/code&gt;&lt;/div&gt;" style="text;html=1;align=center;verticalAlign=middle;whiteSpace=wrap;rounded=0;fontColor=#393C56;" vertex="1" parent="1">
          <mxGeometry x="-307" y="639" width="425" height="83" as="geometry" />
        </mxCell>
      </root>
    </mxGraphModel>
  </diagram>
</mxfile>
